<svg xmlns="http://www.w3.org/2000/svg" width="80" height="80" viewBox="0 0 80 80">
  <defs>
    <filter id="glow-survive">
      <feGaussianBlur stdDeviation="2.5" result="coloredBlur"/>
      <feMerge><feMergeNode in="coloredBlur"/><feMergeNode in="SourceGraphic"/></feMerge>
    </filter>
    <filter id="glow-survive-hot">
      <feGaussianBlur stdDeviation="3.5" result="coloredBlur"/>
      <feMerge><feMergeNode in="coloredBlur"/><feMergeNode in="SourceGraphic"/></feMerge>
    </filter>
  </defs>
  <rect width="80" height="80" fill="#1C1C1C"/>
  <!-- Scanlines -->
  <line x1="0" y1="4" x2="80" y2="4" stroke="#E3DBD2" stroke-width="0.5" opacity="0.06"/>
  <line x1="0" y1="8" x2="80" y2="8" stroke="#E3DBD2" stroke-width="0.5" opacity="0.06"/>
  <line x1="0" y1="12" x2="80" y2="12" stroke="#E3DBD2" stroke-width="0.5" opacity="0.06"/>
  <line x1="0" y1="16" x2="80" y2="16" stroke="#E3DBD2" stroke-width="0.5" opacity="0.06"/>
  <line x1="0" y1="20" x2="80" y2="20" stroke="#E3DBD2" stroke-width="0.5" opacity="0.06"/>
  <line x1="0" y1="24" x2="80" y2="24" stroke="#E3DBD2" stroke-width="0.5" opacity="0.06"/>
  <line x1="0" y1="28" x2="80" y2="28" stroke="#E3DBD2" stroke-width="0.5" opacity="0.06"/>
  <line x1="0" y1="32" x2="80" y2="32" stroke="#E3DBD2" stroke-width="0.5" opacity="0.06"/>
  <line x1="0" y1="36" x2="80" y2="36" stroke="#E3DBD2" stroke-width="0.5" opacity="0.06"/>
  <line x1="0" y1="40" x2="80" y2="40" stroke="#E3DBD2" stroke-width="0.5" opacity="0.06"/>
  <line x1="0" y1="44" x2="80" y2="44" stroke="#E3DBD2" stroke-width="0.5" opacity="0.06"/>
  <line x1="0" y1="48" x2="80" y2="48" stroke="#E3DBD2" stroke-width="0.5" opacity="0.06"/>
  <line x1="0" y1="52" x2="80" y2="52" stroke="#E3DBD2" stroke-width="0.5" opacity="0.06"/>
  <line x1="0" y1="56" x2="80" y2="56" stroke="#E3DBD2" stroke-width="0.5" opacity="0.06"/>
  <line x1="0" y1="60" x2="80" y2="60" stroke="#E3DBD2" stroke-width="0.5" opacity="0.06"/>
  <line x1="0" y1="64" x2="80" y2="64" stroke="#E3DBD2" stroke-width="0.5" opacity="0.06"/>
  <line x1="0" y1="68" x2="80" y2="68" stroke="#E3DBD2" stroke-width="0.5" opacity="0.06"/>
  <line x1="0" y1="72" x2="80" y2="72" stroke="#E3DBD2" stroke-width="0.5" opacity="0.06"/>
  <!-- Outer frame -->
  <rect x="3" y="3" width="74" height="74" fill="none" stroke="#FF7132" stroke-width="1" opacity="0.5"/>
  <!-- Campfire logs -->
  <line x1="26" y1="55" x2="44" y2="47" stroke="#FF7132" stroke-width="3" stroke-linecap="round" filter="url(#glow-survive)"/>
  <line x1="54" y1="55" x2="36" y2="47" stroke="#FF7132" stroke-width="3" stroke-linecap="round" filter="url(#glow-survive)"/>
  <line x1="28" y1="58" x2="52" y2="58" stroke="#FF7132" stroke-width="2" stroke-linecap="round" filter="url(#glow-survive)"/>
  <!-- Flame inner (brighter) -->
  <path d="M 40 18 C 36 24 30 30 32 38 C 34 44 38 46 40 48 C 42 46 46 44 48 38 C 50 30 44 24 40 18 Z" fill="#FF7132" filter="url(#glow-survive-hot)"/>
  <!-- Flame outer tip -->
  <path d="M 40 22 C 38 27 35 32 37 38 C 38 41 39 43 40 44 C 41 43 42 41 43 38 C 45 32 42 27 40 22 Z" fill="#1C1C1C" opacity="0.3"/>
  <!-- Glow under fire -->
  <ellipse cx="40" cy="50" rx="12" ry="3" fill="#FF7132" opacity="0.3" filter="url(#glow-survive-hot)"/>
  <!-- Label -->
  <text x="40" y="73" text-anchor="middle" font-family="monospace" font-size="6" fill="#FF7132">[SURVIVE]</text>
</svg>
