<svg xmlns="http://www.w3.org/2000/svg" width="80" height="80" viewBox="0 0 80 80">
  <defs>
    <filter id="glow-combat">
      <feGaussianBlur stdDeviation="2.5" result="coloredBlur"/>
      <feMerge><feMergeNode in="coloredBlur"/><feMergeNode in="SourceGraphic"/></feMerge>
    </filter>
  </defs>
  <rect width="80" height="80" fill="#1C1C1C"/>
  <!-- Scanlines -->
  <line x1="0" y1="4" x2="80" y2="4" stroke="#E3DBD2" stroke-width="0.5" opacity="0.06"/>
  <line x1="0" y1="8" x2="80" y2="8" stroke="#E3DBD2" stroke-width="0.5" opacity="0.06"/>
  <line x1="0" y1="12" x2="80" y2="12" stroke="#E3DBD2" stroke-width="0.5" opacity="0.06"/>
  <line x1="0" y1="16" x2="80" y2="16" stroke="#E3DBD2" stroke-width="0.5" opacity="0.06"/>
  <line x1="0" y1="20" x2="80" y2="20" stroke="#E3DBD2" stroke-width="0.5" opacity="0.06"/>
  <line x1="0" y1="24" x2="80" y2="24" stroke="#E3DBD2" stroke-width="0.5" opacity="0.06"/>
  <line x1="0" y1="28" x2="80" y2="28" stroke="#E3DBD2" stroke-width="0.5" opacity="0.06"/>
  <line x1="0" y1="32" x2="80" y2="32" stroke="#E3DBD2" stroke-width="0.5" opacity="0.06"/>
  <line x1="0" y1="36" x2="80" y2="36" stroke="#E3DBD2" stroke-width="0.5" opacity="0.06"/>
  <line x1="0" y1="40" x2="80" y2="40" stroke="#E3DBD2" stroke-width="0.5" opacity="0.06"/>
  <line x1="0" y1="44" x2="80" y2="44" stroke="#E3DBD2" stroke-width="0.5" opacity="0.06"/>
  <line x1="0" y1="48" x2="80" y2="48" stroke="#E3DBD2" stroke-width="0.5" opacity="0.06"/>
  <line x1="0" y1="52" x2="80" y2="52" stroke="#E3DBD2" stroke-width="0.5" opacity="0.06"/>
  <line x1="0" y1="56" x2="80" y2="56" stroke="#E3DBD2" stroke-width="0.5" opacity="0.06"/>
  <line x1="0" y1="60" x2="80" y2="60" stroke="#E3DBD2" stroke-width="0.5" opacity="0.06"/>
  <line x1="0" y1="64" x2="80" y2="64" stroke="#E3DBD2" stroke-width="0.5" opacity="0.06"/>
  <line x1="0" y1="68" x2="80" y2="68" stroke="#E3DBD2" stroke-width="0.5" opacity="0.06"/>
  <line x1="0" y1="72" x2="80" y2="72" stroke="#E3DBD2" stroke-width="0.5" opacity="0.06"/>
  <!-- Outer frame -->
  <rect x="3" y="3" width="74" height="74" fill="none" stroke="#FF7132" stroke-width="1" opacity="0.5"/>
  <!-- AK-style rifle silhouette (side view, pointing right) -->
  <!-- Main body -->
  <rect x="14" y="34" width="40" height="8" rx="1" fill="#FF7132" filter="url(#glow-combat)"/>
  <!-- Barrel -->
  <rect x="54" y="35" width="14" height="4" rx="1" fill="#FF7132" filter="url(#glow-combat)"/>
  <!-- Muzzle brake bump -->
  <rect x="66" y="33" width="4" height="8" rx="1" fill="#FF7132" filter="url(#glow-combat)"/>
  <!-- Stock -->
  <path d="M 14 34 L 10 34 L 8 38 L 10 42 L 14 42 Z" fill="#FF7132" filter="url(#glow-combat)"/>
  <!-- Pistol grip -->
  <path d="M 22 42 L 20 52 L 26 52 L 26 42 Z" rx="2" fill="#FF7132" filter="url(#glow-combat)"/>
  <!-- Trigger guard -->
  <path d="M 28 42 Q 32 48 36 42" fill="none" stroke="#FF7132" stroke-width="2" filter="url(#glow-combat)"/>
  <!-- Magazine (curved AK mag) -->
  <path d="M 34 42 Q 33 54 38 56 Q 43 54 42 42 Z" fill="#FF7132" filter="url(#glow-combat)"/>
  <!-- Front sight -->
  <rect x="58" y="31" width="3" height="4" rx="0.5" fill="#FF7132" filter="url(#glow-combat)"/>
  <!-- Rear sight -->
  <rect x="30" y="31" width="5" height="3" rx="0.5" fill="#FF7132" filter="url(#glow-combat)"/>
  <!-- Label -->
  <text x="40" y="73" text-anchor="middle" font-family="monospace" font-size="6" fill="#FF7132">[COMBAT]</text>
</svg>
